<svg width="14" height="14" viewBox="0 0 14 14" fill="none" xmlns="http://www.w3.org/2000/svg">
<path fill-rule="evenodd" clip-rule="evenodd" d="M0.636033 2.05025C0.245509 2.44077 0.245509 3.07394 0.636033 3.46446L4.17157 7L0.636036 10.5355C0.245511 10.9261 0.245511 11.5592 0.636036 11.9498L2.05025 13.364C2.44077 13.7545 3.07394 13.7545 3.46446 13.364L7 9.82843L10.5355 13.364C10.9261 13.7545 11.5592 13.7545 11.9497 13.364L13.364 11.9497C13.7545 11.5592 13.7545 10.9261 13.364 10.5355L9.82843 7L13.364 3.46447C13.7545 3.07395 13.7545 2.44078 13.364 2.05026L11.9497 0.636044C11.5592 0.24552 10.9261 0.24552 10.5355 0.636044L7 4.17157L3.46446 0.636033C3.07394 0.245508 2.44077 0.245508 2.05025 0.636033L0.636033 2.05025Z" fill="#9A9AB6"/>
</svg>
